ffmpeg started on 2026-01-20 at 13:37:51
Report written to "D:\Convert\FFMetrics\reports\ssim_report-6.txt"
Log level: 32
Command line:
ffmpeg -hide_banner -nostdin -r 24000/1001 -i "F:\\Convert\\files\\[DC] Make Heroine ga Oosugiru - 07_Telegram_HEVC(196).mkv" -r 24000/1001 -i "F:\\Convert\\files\\[DC] Make Heroine ga Oosugiru - 07_Telegram.mp4" -lavfi "[0:v]settb=AVTB,setpts=PTS-STARTPTS,format=pix_fmts=yuv420p10le,fps=24000/1001,scale=1920:1080:flags=lanczos:param0=3:out_range=limited:out_color_matrix=bt709:out_chroma_loc=left,setsar=1/1,setdar=(1920/1080)*(1/1),colorspace=format=yuv420p10:range=tv:primaries=bt709:trc=bt709:space=bt709:fast=0[main];[1:v]settb=AVTB,setpts=PTS-STARTPTS,format=pix_fmts=yuv420p,fps=24000/1001,scale=1920:1080:flags=lanczos:param0=3:out_range=limited:out_color_matrix=bt709:out_chroma_loc=left,setsar=1.000,setdar=1.778,colorspace=format=yuv420p:range=tv:primaries=bt709:trc=bt709:space=bt709:fast=0[ref];[main][ref]ssim=eof_action=endall:stats_file='D\\:/Convert/FFMetrics/logs/ssim_logfile-6.txt'" -f null -
Input #0, matroska,webm, from 'F:\Convert\files\[DC] Make Heroine ga Oosugiru - 07_Telegram_HEVC(196).mkv':
  Metadata:
    COMPATIBLE_BRANDS: isomiso2avc1mp41
    MAJOR_BRAND     : isom
    MINOR_VERSION   : 512
    ENCODER         : Lavf61.7.100
  Duration: 00:24:06.79, start: -0.021000, bitrate: 967 kb/s
  Stream #0:0: Video: hevc (Main 10), yuv420p10le(tv, bt709, progressive), 1920x1080 [SAR 1:1 DAR 16:9], 23.98 fps, 23.98 tbr, 1k tbn (default)
      Metadata:
        HANDLER_NAME    : VideoHandler
        VENDOR_ID       : [0][0][0][0]
        ENCODER         : Lavc61.19.100 libx265
        BPS             : 770267
        DURATION        : 00:24:06.569708333
        NUMBER_OF_FRAMES: 34683
        NUMBER_OF_BYTES : 139280683
        _STATISTICS_WRITING_APP: mkvpropedit v94.0 ('Initiate') 64-bit
        _STATISTICS_WRITING_DATE_UTC: 2026-01-19 16:18:03
        _STATISTICS_TAGS: BPS DURATION NUMBER_OF_FRAMES NUMBER_OF_BYTES
  Stream #0:1: Audio: aac (LC), 48000 Hz, stereo, fltp (default)
      Metadata:
        HANDLER_NAME    : SoundHandler
        VENDOR_ID       : [0][0][0][0]
        ENCODER         : Lavc61.19.100 aac
        BPS             : 193194
        DURATION        : 00:24:06.784000000
        NUMBER_OF_FRAMES: 67819
        NUMBER_OF_BYTES : 34938755
        _STATISTICS_WRITING_APP: mkvpropedit v94.0 ('Initiate') 64-bit
        _STATISTICS_WRITING_DATE_UTC: 2026-01-19 16:18:03
        _STATISTICS_TAGS: BPS DURATION NUMBER_OF_FRAMES NUMBER_OF_BYTES
Input #1, mov,mp4,m4a,3gp,3g2,mj2, from 'F:\Convert\files\[DC] Make Heroine ga Oosugiru - 07_Telegram.mp4':
  Metadata:
    major_brand     : isom
    minor_version   : 512
    compatible_brands: isomiso2avc1mp41
    encoder         : Lavf60.16.100
  Duration: 00:24:06.74, start: 0.000000, bitrate: 3764 kb/s
  Stream #1:0[0x1](und): Video: h264 (High) (avc1 / 0x31637661), yuv420p(tv, bt709, progressive), 1920x1080 [SAR 1:1 DAR 16:9], 3616 kb/s, 23.98 fps, 23.98 tbr, 24k tbn (default)
      Metadata:
        handler_name    : VideoHandler
        vendor_id       : [0][0][0][0]
        encoder         : Lavc60.31.102 h264_qsv
  Stream #1:1[0x2](und): Audio: aac (HE-AACv2) (mp4a / 0x6134706D), 48000 Hz, stereo, fltp, 144 kb/s (default)
      Metadata:
        handler_name    : SoundHandler
        vendor_id       : [0][0][0][0]
Stream mapping:
  Stream #0:0 (hevc) -> settb:default
  Stream #1:0 (h264) -> settb:default
  ssim:default -> Stream #0:0 (wrapped_avframe)
  Stream #0:1 -> #0:1 (aac (native) -> pcm_s16le (native))
Output #0, null, to 'pipe:':
  Metadata:
    COMPATIBLE_BRANDS: isomiso2avc1mp41
    MAJOR_BRAND     : isom
    MINOR_VERSION   : 512
    encoder         : Lavf61.7.100
  Stream #0:0: Video: wrapped_avframe, yuv420p10le(tv, bt709, progressive), 1920x1080 [SAR 1:1 DAR 16:9], q=2-31, 200 kb/s, 23.98 fps, 23.98 tbn
      Metadata:
        encoder         : Lavc61.19.100 wrapped_avframe
  Stream #0:1: Audio: pcm_s16le, 48000 Hz, stereo, s16, 1536 kb/s (default)
      Metadata:
        HANDLER_NAME    : SoundHandler
        VENDOR_ID       : [0][0][0][0]
        _STATISTICS_TAGS: BPS DURATION NUMBER_OF_FRAMES NUMBER_OF_BYTES
        BPS             : 193194
        DURATION        : 00:24:06.784000000
        NUMBER_OF_FRAMES: 67819
        NUMBER_OF_BYTES : 34938755
        _STATISTICS_WRITING_APP: mkvpropedit v94.0 ('Initiate') 64-bit
        _STATISTICS_WRITING_DATE_UTC: 2026-01-19 16:18:03
        encoder         : Lavc61.19.100 pcm_s16le
frame=  119 fps=0.0 q=-0.0 size=N/A time=00:00:04.96 bitrate=N/A speed=9.86x    frame=  306 fps=297 q=-0.0 size=N/A time=00:00:12.76 bitrate=N/A speed=12.4x    frame=  486 fps=316 q=-0.0 size=N/A time=00:00:20.27 bitrate=N/A speed=13.2x    frame=  662 fps=323 q=-0.0 size=N/A time=00:00:27.61 bitrate=N/A speed=13.5x    frame=  846 fps=329 q=-0.0 size=N/A time=00:00:35.28 bitrate=N/A speed=13.7x    frame=  986 fps=319 q=-0.0 size=N/A time=00:00:41.12 bitrate=N/A speed=13.3x    frame= 1136 fps=315 q=-0.0 size=N/A time=00:00:47.38 bitrate=N/A speed=13.1x    frame= 1298 fps=314 q=-0.0 size=N/A time=00:00:54.13 bitrate=N/A speed=13.1x    frame= 1456 fps=313 q=-0.0 size=N/A time=00:01:00.72 bitrate=N/A speed=13.1x    frame= 1593 fps=309 q=-0.0 size=N/A time=00:01:06.44 bitrate=N/A speed=12.9x    frame= 1745 fps=307 q=-0.0 size=N/A time=00:01:12.78 bitrate=N/A speed=12.8x    frame= 1900 fps=307 q=-0.0 size=N/A time=00:01:19.24 bitrate=N/A speed=12.8x    frame= 2051 fps=305 q=-0.0 size=N/A time=00:01:25.54 bitrate=N/A speed=12.7x    frame= 2165 fps=299 q=-0.0 size=N/A time=00:01:30.29 bitrate=N/A speed=12.5x    frame= 2313 fps=299 q=-0.0 size=N/A time=00:01:36.47 bitrate=N/A speed=12.5x    frame= 2452 fps=297 q=-0.0 size=N/A time=00:01:42.26 bitrate=N/A speed=12.4x    frame= 2582 fps=294 q=-0.0 size=N/A time=00:01:47.69 bitrate=N/A speed=12.3x    frame= 2740 fps=295 q=-0.0 size=N/A time=00:01:54.28 bitrate=N/A speed=12.3x    frame= 2903 fps=296 q=-0.0 size=N/A time=00:02:01.07 bitrate=N/A speed=12.3x    frame= 3074 fps=298 q=-0.0 size=N/A time=00:02:08.21 bitrate=N/A speed=12.4x    frame= 3254 fps=300 q=-0.0 size=N/A time=00:02:15.71 bitrate=N/A speed=12.5x    frame= 3433 fps=303 q=-0.0 size=N/A time=00:02:23.18 bitrate=N/A speed=12.6x    frame= 3622 fps=305 q=-0.0 size=N/A time=00:02:31.06 bitrate=N/A speed=12.7x    frame= 3805 fps=307 q=-0.0 size=N/A time=00:02:38.70 bitrate=N/A speed=12.8x    frame= 3983 fps=309 q=-0.0 size=N/A time=00:02:46.12 bitrate=N/A speed=12.9x    frame= 4168 fps=311 q=-0.0 size=N/A time=00:02:53.84 bitrate=N/A speed=  13x    frame= 4345 fps=312 q=-0.0 size=N/A time=00:03:01.22 bitrate=N/A speed=  13x    frame= 4523 fps=313 q=-0.0 size=N/A time=00:03:08.64 bitrate=N/A speed=13.1x    frame= 4712 fps=315 q=-0.0 size=N/A time=00:03:16.52 bitrate=N/A speed=13.1x    frame= 4884 fps=316 q=-0.0 size=N/A time=00:03:23.70 bitrate=N/A speed=13.2x    frame= 5057 fps=316 q=-0.0 size=N/A time=00:03:30.91 bitrate=N/A speed=13.2x    frame= 5229 fps=317 q=-0.0 size=N/A time=00:03:38.09 bitrate=N/A speed=13.2x    frame= 5406 fps=318 q=-0.0 size=N/A time=00:03:45.47 bitrate=N/A speed=13.2x    frame= 5582 fps=318 q=-0.0 size=N/A time=00:03:52.81 bitrate=N/A speed=13.3x    frame= 5763 fps=319 q=-0.0 size=N/A time=00:04:00.36 bitrate=N/A speed=13.3x    frame= 5944 fps=320 q=-0.0 size=N/A time=00:04:07.91 bitrate=N/A speed=13.3x    frame= 6116 fps=320 q=-0.0 size=N/A time=00:04:15.08 bitrate=N/A speed=13.4x    frame= 6295 fps=321 q=-0.0 size=N/A time=00:04:22.55 bitrate=N/A speed=13.4x    frame= 6471 fps=322 q=-0.0 size=N/A time=00:04:29.89 bitrate=N/A speed=13.4x    frame= 6646 fps=322 q=-0.0 size=N/A time=00:04:37.19 bitrate=N/A speed=13.4x    frame= 6831 fps=323 q=-0.0 size=N/A time=00:04:44.90 bitrate=N/A speed=13.5x    frame= 7004 fps=323 q=-0.0 size=N/A time=00:04:52.12 bitrate=N/A speed=13.5x    frame= 7171 fps=323 q=-0.0 size=N/A time=00:04:59.09 bitrate=N/A speed=13.5x    frame= 7347 fps=324 q=-0.0 size=N/A time=00:05:06.43 bitrate=N/A speed=13.5x    frame= 7521 fps=324 q=-0.0 size=N/A time=00:05:13.68 bitrate=N/A speed=13.5x    frame= 7692 fps=324 q=-0.0 size=N/A time=00:05:20.82 bitrate=N/A speed=13.5x    frame= 7870 fps=325 q=-0.0 size=N/A time=00:05:28.24 bitrate=N/A speed=13.5x    frame= 8043 fps=325 q=-0.0 size=N/A time=00:05:35.46 bitrate=N/A speed=13.5x    frame= 8218 fps=325 q=-0.0 size=N/A time=00:05:42.75 bitrate=N/A speed=13.6x    frame= 8398 fps=326 q=-0.0 size=N/A time=00:05:50.26 bitrate=N/A speed=13.6x    frame= 8576 fps=326 q=-0.0 size=N/A time=00:05:57.69 bitrate=N/A speed=13.6x    frame= 8751 fps=326 q=-0.0 size=N/A time=00:06:04.98 bitrate=N/A speed=13.6x    frame= 8924 fps=326 q=-0.0 size=N/A time=00:06:12.20 bitrate=N/A speed=13.6x    frame= 9099 fps=327 q=-0.0 size=N/A time=00:06:19.50 bitrate=N/A speed=13.6x    frame= 9288 fps=327 q=-0.0 size=N/A time=00:06:27.38 bitrate=N/A speed=13.7x    frame= 9461 fps=328 q=-0.0 size=N/A time=00:06:34.60 bitrate=N/A speed=13.7x    frame= 9637 fps=328 q=-0.0 size=N/A time=00:06:41.94 bitrate=N/A speed=13.7x    frame= 9816 fps=328 q=-0.0 size=N/A time=00:06:49.40 bitrate=N/A speed=13.7x    frame= 9998 fps=329 q=-0.0 size=N/A time=00:06:56.99 bitrate=N/A speed=13.7x    frame=10179 fps=329 q=-0.0 size=N/A time=00:07:04.54 bitrate=N/A speed=13.7x    frame=10356 fps=329 q=-0.0 size=N/A time=00:07:11.93 bitrate=N/A speed=13.7x    frame=10536 fps=329 q=-0.0 size=N/A time=00:07:19.43 bitrate=N/A speed=13.7x    frame=10711 fps=330 q=-0.0 size=N/A time=00:07:26.73 bitrate=N/A speed=13.7x    frame=10886 fps=330 q=-0.0 size=N/A time=00:07:34.03 bitrate=N/A speed=13.8x    frame=11061 fps=330 q=-0.0 size=N/A time=00:07:41.33 bitrate=N/A speed=13.8x    frame=11233 fps=330 q=-0.0 size=N/A time=00:07:48.50 bitrate=N/A speed=13.8x    frame=11403 fps=330 q=-0.0 size=N/A time=00:07:55.60 bitrate=N/A speed=13.8x    frame=11593 fps=330 q=-0.0 size=N/A time=00:08:03.52 bitrate=N/A speed=13.8x    frame=11769 fps=331 q=-0.0 size=N/A time=00:08:10.86 bitrate=N/A speed=13.8x    frame=11948 fps=331 q=-0.0 size=N/A time=00:08:18.33 bitrate=N/A speed=13.8x    frame=12126 fps=331 q=-0.0 size=N/A time=00:08:25.75 bitrate=N/A speed=13.8x    frame=12304 fps=331 q=-0.0 size=N/A time=00:08:33.17 bitrate=N/A speed=13.8x    frame=12474 fps=331 q=-0.0 size=N/A time=00:08:40.26 bitrate=N/A speed=13.8x    frame=12655 fps=331 q=-0.0 size=N/A time=00:08:47.81 bitrate=N/A speed=13.8x    frame=12834 fps=332 q=-0.0 size=N/A time=00:08:55.28 bitrate=N/A speed=13.8x    frame=13010 fps=332 q=-0.0 size=N/A time=00:09:02.62 bitrate=N/A speed=13.8x    frame=13189 fps=332 q=-0.0 size=N/A time=00:09:10.09 bitrate=N/A speed=13.8x    frame=13358 fps=332 q=-0.0 size=N/A time=00:09:17.13 bitrate=N/A speed=13.8x    frame=13528 fps=332 q=-0.0 size=N/A time=00:09:24.23 bitrate=N/A speed=13.8x    frame=13701 fps=332 q=-0.0 size=N/A time=00:09:31.44 bitrate=N/A speed=13.8x    frame=13879 fps=332 q=-0.0 size=N/A time=00:09:38.86 bitrate=N/A speed=13.9x    frame=14055 fps=332 q=-0.0 size=N/A time=00:09:46.21 bitrate=N/A speed=13.9x    frame=14215 fps=332 q=-0.0 size=N/A time=00:09:52.88 bitrate=N/A speed=13.8x    frame=14394 fps=332 q=-0.0 size=N/A time=00:10:00.34 bitrate=N/A speed=13.9x    frame=14575 fps=332 q=-0.0 size=N/A time=00:10:07.89 bitrate=N/A speed=13.9x    frame=14760 fps=333 q=-0.0 size=N/A time=00:10:15.61 bitrate=N/A speed=13.9x    frame=14939 fps=333 q=-0.0 size=N/A time=00:10:23.08 bitrate=N/A speed=13.9x    frame=15104 fps=333 q=-0.0 size=N/A time=00:10:29.96 bitrate=N/A speed=13.9x    frame=15270 fps=333 q=-0.0 size=N/A time=00:10:36.88 bitrate=N/A speed=13.9x    frame=15437 fps=332 q=-0.0 size=N/A time=00:10:43.85 bitrate=N/A speed=13.9x    frame=15614 fps=333 q=-0.0 size=N/A time=00:10:51.23 bitrate=N/A speed=13.9x    frame=15799 fps=333 q=-0.0 size=N/A time=00:10:58.94 bitrate=N/A speed=13.9x    frame=15980 fps=333 q=-0.0 size=N/A time=00:11:06.49 bitrate=N/A speed=13.9x    frame=16161 fps=333 q=-0.0 size=N/A time=00:11:14.04 bitrate=N/A speed=13.9x    frame=16346 fps=334 q=-0.0 size=N/A time=00:11:21.76 bitrate=N/A speed=13.9x    frame=16515 fps=333 q=-0.0 size=N/A time=00:11:28.81 bitrate=N/A speed=13.9x    frame=16693 fps=334 q=-0.0 size=N/A time=00:11:36.23 bitrate=N/A speed=13.9x    frame=16873 fps=334 q=-0.0 size=N/A time=00:11:43.74 bitrate=N/A speed=13.9x    frame=17052 fps=334 q=-0.0 size=N/A time=00:11:51.21 bitrate=N/A speed=13.9x    frame=17243 fps=334 q=-0.0 size=N/A time=00:11:59.17 bitrate=N/A speed=13.9x    frame=17412 fps=334 q=-0.0 size=N/A time=00:12:06.22 bitrate=N/A speed=13.9x    frame=17583 fps=334 q=-0.0 size=N/A time=00:12:13.35 bitrate=N/A speed=13.9x    frame=17766 fps=334 q=-0.0 size=N/A time=00:12:20.99 bitrate=N/A speed=13.9x    frame=17946 fps=334 q=-0.0 size=N/A time=00:12:28.49 bitrate=N/A speed=  14x    frame=18122 fps=335 q=-0.0 size=N/A time=00:12:35.83 bitrate=N/A speed=  14x    frame=18291 fps=335 q=-0.0 size=N/A time=00:12:42.88 bitrate=N/A speed=  14x    frame=18470 fps=335 q=-0.0 size=N/A time=00:12:50.35 bitrate=N/A speed=  14x    frame=18644 fps=335 q=-0.0 size=N/A time=00:12:57.61 bitrate=N/A speed=  14x    frame=18829 fps=335 q=-0.0 size=N/A time=00:13:05.32 bitrate=N/A speed=  14x    frame=19010 fps=335 q=-0.0 size=N/A time=00:13:12.87 bitrate=N/A speed=  14x    frame=19185 fps=335 q=-0.0 size=N/A time=00:13:20.17 bitrate=N/A speed=  14x    frame=19368 fps=335 q=-0.0 size=N/A time=00:13:27.80 bitrate=N/A speed=  14x    frame=19542 fps=335 q=-0.0 size=N/A time=00:13:35.06 bitrate=N/A speed=  14x    frame=19722 fps=335 q=-0.0 size=N/A time=00:13:42.57 bitrate=N/A speed=  14x    frame=19903 fps=335 q=-0.0 size=N/A time=00:13:50.12 bitrate=N/A speed=  14x    frame=20086 fps=336 q=-0.0 size=N/A time=00:13:57.75 bitrate=N/A speed=  14x    frame=20263 fps=336 q=-0.0 size=N/A time=00:14:05.13 bitrate=N/A speed=  14x    frame=20434 fps=336 q=-0.0 size=N/A time=00:14:12.26 bitrate=N/A speed=  14x    frame=20603 fps=336 q=-0.0 size=N/A time=00:14:19.31 bitrate=N/A speed=  14x    frame=20781 fps=336 q=-0.0 size=N/A time=00:14:26.74 bitrate=N/A speed=  14x    frame=20967 fps=336 q=-0.0 size=N/A time=00:14:34.49 bitrate=N/A speed=  14x    frame=21149 fps=336 q=-0.0 size=N/A time=00:14:42.08 bitrate=N/A speed=  14x    frame=21332 fps=336 q=-0.0 size=N/A time=00:14:49.72 bitrate=N/A speed=  14x    frame=21527 fps=336 q=-0.0 size=N/A time=00:14:57.85 bitrate=N/A speed=  14x    frame=21705 fps=337 q=-0.0 size=N/A time=00:15:05.27 bitrate=N/A speed=  14x    frame=21900 fps=337 q=-0.0 size=N/A time=00:15:13.41 bitrate=N/A speed=14.1x    frame=22089 fps=337 q=-0.0 size=N/A time=00:15:21.29 bitrate=N/A speed=14.1x    frame=22272 fps=337 q=-0.0 size=N/A time=00:15:28.92 bitrate=N/A speed=14.1x    frame=22466 fps=338 q=-0.0 size=N/A time=00:15:37.01 bitrate=N/A speed=14.1x    frame=22659 fps=338 q=-0.0 size=N/A time=00:15:45.06 bitrate=N/A speed=14.1x    frame=22840 fps=338 q=-0.0 size=N/A time=00:15:52.61 bitrate=N/A speed=14.1x    frame=23030 fps=338 q=-0.0 size=N/A time=00:16:00.54 bitrate=N/A speed=14.1x    frame=23215 fps=338 q=-0.0 size=N/A time=00:16:08.25 bitrate=N/A speed=14.1x    frame=23404 fps=339 q=-0.0 size=N/A time=00:16:16.14 bitrate=N/A speed=14.1x    frame=23594 fps=339 q=-0.0 size=N/A time=00:16:24.06 bitrate=N/A speed=14.1x    frame=23794 fps=339 q=-0.0 size=N/A time=00:16:32.40 bitrate=N/A speed=14.1x    frame=23980 fps=339 q=-0.0 size=N/A time=00:16:40.16 bitrate=N/A speed=14.1x    frame=24160 fps=339 q=-0.0 size=N/A time=00:16:47.67 bitrate=N/A speed=14.2x    frame=24347 fps=339 q=-0.0 size=N/A time=00:16:55.47 bitrate=N/A speed=14.2x    frame=24543 fps=340 q=-0.0 size=N/A time=00:17:03.64 bitrate=N/A speed=14.2x    frame=24729 fps=340 q=-0.0 size=N/A time=00:17:11.40 bitrate=N/A speed=14.2x    frame=24920 fps=340 q=-0.0 size=N/A time=00:17:19.37 bitrate=N/A speed=14.2x    frame=25116 fps=340 q=-0.0 size=N/A time=00:17:27.54 bitrate=N/A speed=14.2x    frame=25305 fps=341 q=-0.0 size=N/A time=00:17:35.42 bitrate=N/A speed=14.2x    frame=25496 fps=341 q=-0.0 size=N/A time=00:17:43.39 bitrate=N/A speed=14.2x    frame=25687 fps=341 q=-0.0 size=N/A time=00:17:51.36 bitrate=N/A speed=14.2x    frame=25875 fps=341 q=-0.0 size=N/A time=00:17:59.20 bitrate=N/A speed=14.2x    frame=26065 fps=341 q=-0.0 size=N/A time=00:18:07.12 bitrate=N/A speed=14.2x    frame=26248 fps=341 q=-0.0 size=N/A time=00:18:14.76 bitrate=N/A speed=14.2x    frame=26432 fps=342 q=-0.0 size=N/A time=00:18:22.43 bitrate=N/A speed=14.2x    frame=26627 fps=342 q=-0.0 size=N/A time=00:18:30.56 bitrate=N/A speed=14.3x    frame=26809 fps=342 q=-0.0 size=N/A time=00:18:38.15 bitrate=N/A speed=14.3x    frame=26993 fps=342 q=-0.0 size=N/A time=00:18:45.83 bitrate=N/A speed=14.3x    frame=27172 fps=342 q=-0.0 size=N/A time=00:18:53.29 bitrate=N/A speed=14.3x    frame=27350 fps=342 q=-0.0 size=N/A time=00:19:00.72 bitrate=N/A speed=14.3x    frame=27534 fps=342 q=-0.0 size=N/A time=00:19:08.39 bitrate=N/A speed=14.3x    frame=27722 fps=342 q=-0.0 size=N/A time=00:19:16.23 bitrate=N/A speed=14.3x    frame=27902 fps=342 q=-0.0 size=N/A time=00:19:23.74 bitrate=N/A speed=14.3x    frame=28088 fps=342 q=-0.0 size=N/A time=00:19:31.50 bitrate=N/A speed=14.3x    frame=28281 fps=342 q=-0.0 size=N/A time=00:19:39.55 bitrate=N/A speed=14.3x    frame=28465 fps=343 q=-0.0 size=N/A time=00:19:47.22 bitrate=N/A speed=14.3x    frame=28646 fps=343 q=-0.0 size=N/A time=00:19:54.77 bitrate=N/A speed=14.3x    frame=28826 fps=343 q=-0.0 size=N/A time=00:20:02.28 bitrate=N/A speed=14.3x    frame=28993 fps=343 q=-0.0 size=N/A time=00:20:09.24 bitrate=N/A speed=14.3x    frame=29166 fps=343 q=-0.0 size=N/A time=00:20:16.46 bitrate=N/A speed=14.3x    frame=29345 fps=343 q=-0.0 size=N/A time=00:20:23.93 bitrate=N/A speed=14.3x    frame=29518 fps=343 q=-0.0 size=N/A time=00:20:31.14 bitrate=N/A speed=14.3x    frame=29691 fps=342 q=-0.0 size=N/A time=00:20:38.36 bitrate=N/A speed=14.3x    frame=29872 fps=342 q=-0.0 size=N/A time=00:20:45.91 bitrate=N/A speed=14.3x    frame=30032 fps=342 q=-0.0 size=N/A time=00:20:52.58 bitrate=N/A speed=14.3x    frame=30215 fps=342 q=-0.0 size=N/A time=00:21:00.21 bitrate=N/A speed=14.3x    frame=30407 fps=343 q=-0.0 size=N/A time=00:21:08.22 bitrate=N/A speed=14.3x    frame=30592 fps=343 q=-0.0 size=N/A time=00:21:15.94 bitrate=N/A speed=14.3x    frame=30781 fps=343 q=-0.0 size=N/A time=00:21:23.82 bitrate=N/A speed=14.3x    frame=30963 fps=343 q=-0.0 size=N/A time=00:21:31.41 bitrate=N/A speed=14.3x    frame=31156 fps=343 q=-0.0 size=N/A time=00:21:39.46 bitrate=N/A speed=14.3x    frame=31337 fps=343 q=-0.0 size=N/A time=00:21:47.01 bitrate=N/A speed=14.3x    frame=31523 fps=343 q=-0.0 size=N/A time=00:21:54.77 bitrate=N/A speed=14.3x    frame=31716 fps=343 q=-0.0 size=N/A time=00:22:02.82 bitrate=N/A speed=14.3x    frame=31890 fps=343 q=-0.0 size=N/A time=00:22:10.07 bitrate=N/A speed=14.3x    frame=32077 fps=343 q=-0.0 size=N/A time=00:22:17.87 bitrate=N/A speed=14.3x    frame=32258 fps=343 q=-0.0 size=N/A time=00:22:25.42 bitrate=N/A speed=14.3x    frame=32452 fps=344 q=-0.0 size=N/A time=00:22:33.51 bitrate=N/A speed=14.3x    frame=32635 fps=344 q=-0.0 size=N/A time=00:22:41.15 bitrate=N/A speed=14.3x    frame=32781 fps=343 q=-0.0 size=N/A time=00:22:47.24 bitrate=N/A speed=14.3x    frame=32942 fps=343 q=-0.0 size=N/A time=00:22:53.95 bitrate=N/A speed=14.3x    frame=33130 fps=343 q=-0.0 size=N/A time=00:23:01.79 bitrate=N/A speed=14.3x    frame=33304 fps=343 q=-0.0 size=N/A time=00:23:09.05 bitrate=N/A speed=14.3x    frame=33474 fps=343 q=-0.0 size=N/A time=00:23:16.14 bitrate=N/A speed=14.3x    frame=33629 fps=343 q=-0.0 size=N/A time=00:23:22.60 bitrate=N/A speed=14.3x    frame=33767 fps=343 q=-0.0 size=N/A time=00:23:28.36 bitrate=N/A speed=14.3x    frame=33893 fps=342 q=-0.0 size=N/A time=00:23:33.62 bitrate=N/A speed=14.3x    frame=34053 fps=342 q=-0.0 size=N/A time=00:23:40.29 bitrate=N/A speed=14.3x    frame=34212 fps=342 q=-0.0 size=N/A time=00:23:46.92 bitrate=N/A speed=14.3x    frame=34359 fps=341 q=-0.0 size=N/A time=00:23:53.05 bitrate=N/A speed=14.2x    frame=34498 fps=341 q=-0.0 size=N/A time=00:23:58.85 bitrate=N/A speed=14.2x    [Parsed_ssim_16 @ 000001dbfb9a2280] SSIM Y:0.994206 (22.370433) U:0.994008 (22.224004) V:0.993612 (21.946589) All:0.994074 (22.272521)
[out#0/null @ 000001dbee85fe80] video:14903KiB audio:271276KiB subtitle:0KiB other streams:0KiB global headers:0KiB muxing overhead: unknown
frame=34683 fps=341 q=-0.0 Lsize=N/A time=00:24:06.57 bitrate=N/A speed=14.2x    
